# xmcd
# Track frame offsets:
# 150
# 21327
# 37166
# 52327
# 69313
# 87590
# 105411
# 119629
# 135443
# 151186
# 165474
# 183875
# 201888
# 218946
# 239500
#
# Disc length: 3423 seconds
# Revision: 0
# Processed by: cddbd v1.5.1PL0 Copyright (c) Steve Scherf et al.
# Submitted via: VisiTrax 2.9.10.228 - For more info visit www.synapsa.com
#
DISCID=d70d5d0f
DTITLE=Various Artist - CB60327
DYEAR=1900
DGENRE=Karaoke
TTITLE0=Montgomery, John - Goes Good With Beer
TTITLE1=Shelton, Blake - Some Beach
TTITLE2=Clark, Terri - One Of The Guys
TTITLE3=Keith, Toby - Stays In Mexico
TTITLE4=Rascal Flatts - My Worst Fear
TTITLE5=Urban, Keith - You Look Good In My Shirt
TTITLE6=Britt, Catherine - Upside Of Being Down, The
TTITLE7=Lonestar - Mr. Mom
TTITLE8=Diamond Rio - Can't You Tell
TTITLE9=Jenkins, The - Getawy Car
TTITLE10=Emerson Drive - November
TTITLE11=Willmon, Trent - Dixie Rose Deluxe's Honky Tonk
TTITLE12=Dean, Roxie - Soldiers Wife, A
TTITLE13=Notorious Cherry Bombs - It's Hard To Kiss The Lips At Night
TTITLE14=Elam, Katrina - No End In Sight
EXTD=
EXTT0=
EXTT1=
EXTT2=
EXTT3=
EXTT4=
EXTT5=
EXTT6=
EXTT7=
EXTT8=
EXTT9=
EXTT10=
EXTT11=
EXTT12=
EXTT13=
EXTT14=
PLAYORDER=
